<svg width="420" height="287" viewBox="0 0 420 287" fill="none" xmlns="http://www.w3.org/2000/svg">
<ellipse cx="143.32" cy="128.145" rx="143.32" ry="128.145" transform="matrix(-1 0 0 1 420 0.359375)" fill="#B0E212"/>
<ellipse cx="143.32" cy="128.145" rx="143.32" ry="128.145" transform="matrix(-1 0 0 1 420 0.359375)" fill="#B0E212"/>
<ellipse cx="143.32" cy="128.145" rx="143.32" ry="128.145" transform="matrix(-1 0 0 1 420 0.359375)" fill="#B0E212"/>
<ellipse cx="143.32" cy="128.145" rx="143.32" ry="128.145" transform="matrix(-1 0 0 1 420 0.359375)" fill="#B0E212"/>
<ellipse cx="83.9093" cy="78.5817" rx="83.9093" ry="78.5817" transform="matrix(-1 0 0 1 167.818 129.837)" fill="#B0E212"/>
<ellipse cx="83.9093" cy="78.5817" rx="83.9093" ry="78.5817" transform="matrix(-1 0 0 1 167.818 129.837)" fill="#B0E212"/>
<ellipse cx="83.9093" cy="78.5817" rx="83.9093" ry="78.5817" transform="matrix(-1 0 0 1 167.818 129.837)" fill="#B0E212"/>
<ellipse cx="83.9093" cy="78.5817" rx="83.9093" ry="78.5817" transform="matrix(-1 0 0 1 167.818 129.837)" fill="#B0E212"/>
<ellipse cx="123.087" cy="118.028" rx="123.087" ry="118.028" transform="matrix(-1 0 0 1 389.65 20.5928)" fill="#FFFEFE"/>
<ellipse cx="79.9136" cy="70.5904" rx="79.9136" ry="70.5904" transform="matrix(-1 0 0 1 167.818 145.819)" fill="#FFFEFE"/>
<ellipse cx="19.3937" cy="17.2388" rx="19.3937" ry="17.2388" transform="matrix(0.150442 0.988619 0.988619 -0.150442 199.143 166.72)" fill="black"/>
<ellipse cx="19.3937" cy="17.2388" rx="19.3937" ry="17.2388" transform="matrix(0.150442 0.988619 0.988619 -0.150442 199.143 166.72)" fill="#0F0F0E"/>
<ellipse cx="19.3937" cy="17.2388" rx="19.3937" ry="17.2388" transform="matrix(0.150442 0.988619 0.988619 -0.150442 199.143 166.72)" fill="#151515"/>
<ellipse cx="19.3937" cy="17.2388" rx="19.3937" ry="17.2388" transform="matrix(0.150442 0.988619 0.988619 -0.150442 199.143 166.72)" fill="#111111"/>
<ellipse cx="19.3937" cy="17.2388" rx="19.3937" ry="17.2388" transform="matrix(0.150442 0.988619 0.988619 -0.150442 109.252 188.299)" fill="black"/>
<ellipse cx="19.3937" cy="17.2388" rx="19.3937" ry="17.2388" transform="matrix(0.150442 0.988619 0.988619 -0.150442 109.252 188.299)" fill="#0F0F0E"/>
<ellipse cx="19.3937" cy="17.2388" rx="19.3937" ry="17.2388" transform="matrix(0.150442 0.988619 0.988619 -0.150442 109.252 188.299)" fill="#151515"/>
<ellipse cx="19.3937" cy="17.2388" rx="19.3937" ry="17.2388" transform="matrix(0.150442 0.988619 0.988619 -0.150442 109.252 188.299)" fill="#111111"/>
<ellipse cx="5.75864" cy="6.28904" rx="5.75864" ry="6.28904" transform="matrix(0.150442 0.988619 0.988619 -0.150442 219.361 171.726)" fill="#FFFEFE"/>
<ellipse cx="5.75864" cy="6.28904" rx="5.75864" ry="6.28904" transform="matrix(0.150442 0.988619 0.988619 -0.150442 129.471 193.306)" fill="#FFFEFE"/>
</svg>
